HIERARCHY
ROOT Hips
{
  OFFSET 2.30962 101.381 -40.3482
  CHANNELS 6 Xposition Yposition Zposition Zrotation Xrotation Yrotation
  JOINT RightUpLeg
  {
    OFFSET -8.9458 -8.66707 0.101652
    CHANNELS 3 Zrotation Xrotation Yrotation
    JOINT RightLeg
    {
      OFFSET 0 -44.4227 1.3727
      CHANNELS 3 Zrotation Xrotation Yrotation
      JOINT RightFoot
      {
        OFFSET 0.253549 -42.0924 -1.46059
        CHANNELS 3 Zrotation Xrotation Yrotation
        JOINT RightToes
        {
          OFFSET 0.04 -4.41509 8.4991
          CHANNELS 3 Zrotation Xrotation Yrotation
          End Site
          {
            OFFSET -0.08 -0.137448 9.77979
          }
        }
      }
    }
  }
  JOINT Spine
  {
    OFFSET 0 11.8905 0
    CHANNELS 3 Zrotation Xrotation Yrotation
    JOINT Spine1
    {
      OFFSET 0 25.6574 0.127663
      CHANNELS 3 Zrotation Xrotation Yrotation
      JOINT HEad
      {
        OFFSET 0 8.73416 0.011341
        CHANNELS 3 Zrotation Xrotation Yrotation
        End Site
        {
          OFFSET -0.29 12.7742 2.51395
        }
      }
      JOINT LeftShoulder1
      {
        OFFSET 8.99 -0.362252 -0.22
        CHANNELS 3 Zrotation Xrotation Yrotation
        JOINT LeftArm
        {
          OFFSET 10.2827 -0.00338 0.322123
          CHANNELS 3 Zrotation Xrotation Yrotation
          JOINT LeftForeArm
          {
            OFFSET 32.7669 0.099144 -1.42434
            CHANNELS 3 Zrotation Xrotation Yrotation
            JOINT LeftHand
            {
              OFFSET 27.5643 0.085362 1.02216
              CHANNELS 3 Zrotation Xrotation Yrotation
              End Site
              {
                OFFSET 16.7443 -0.6 1.50291
              }
            }
          }
        }
      }
      JOINT RightShoulder
      {
        OFFSET -8.99 -0.362252 -0.22
        CHANNELS 3 Zrotation Xrotation Yrotation
        JOINT RightArm
        {
          OFFSET -10.2827 -0.00338 0.322123
          CHANNELS 3 Zrotation Xrotation Yrotation
          JOINT RightForeArm
          {
            OFFSET -32.8971 0.099144 -1.42434
            CHANNELS 3 Zrotation Xrotation Yrotation
            JOINT RightHand
            {
              OFFSET -27.4921 0.085362 1.02216
              CHANNELS 3 Zrotation Xrotation Yrotation
              End Site
              {
                OFFSET -16.6312 -0.6 1.50291
              }
            }
          }
        }
      }
    }
  }
  JOINT LeftUpLeg
  {
    OFFSET 8.9458 -8.66707 0.101652
    CHANNELS 3 Zrotation Xrotation Yrotation
    JOINT LeftLeg
    {
      OFFSET 0 -44.4227 1.3727
      CHANNELS 3 Zrotation Xrotation Yrotation
      JOINT LeftFoot
      {
        OFFSET -0.253549 -42.0924 -1.46059
        CHANNELS 3 Zrotation Xrotation Yrotation
        JOINT LeftToes
        {
          OFFSET -0.04 -4.41509 8.4991
          CHANNELS 3 Zrotation Xrotation Yrotation
          End Site
          {
            OFFSET 0.08 -0.047448 9.77979
          }
        }
      }
    }
  }
}
MOTION
Frames:	8
Frame Time:	0.0166667
8.44322 95.9109 -36.7993 48.8532 39.7535 160.972 -47.9287 -31.5536 -12.1264 87.3059 12.8163 -66.5911 -22.4407 18.6014 8.9478 0.0462048 0.000533403 0.662642 22.7998 54.9968 -15.4107 -0.0180765 -0.00457966 -0.00339289 25.4218 20.3237 -21.8004 -5.56597e-015 -1.59028e-015 -4.77083e-015 -78.6427 -6.34261 -52.1819 -45.8684 30.8787 -70.6545 14.0856 18.3497 -13.1577 43.1058 1.1631 -6.89057 72.4424 -48.6428 72.2386 8.58069 10.8072 57.0535 15.5739 21.273 6.3504 42.393 6.19967 -31.7764 -36.1918 25.0644 98.4009 9.20771 1.95696 4.12589 -1.35361e-009 1.56028e-007 -4.8854e-009 
7.92341 95.7475 -36.4778 47.3007 40.0332 162.645 -45.0971 -31.5326 -15.4918 89.6576 22.6197 -65.9414 -20.7297 19.372 5.74392 0.0462048 0.000533403 0.662642 22.5425 54.1832 -15.6237 -0.0149787 0.00292043 -0.0044682 27.3043 22.5234 -22.6738 -3.57812e-015 0 -4.77083e-015 -78.657 -5.54829 -52.8886 -45.0393 30.4865 -70.8491 13.9203 18.4573 -13.1821 42.2427 1.45733 -7.13482 73.2142 -48.7006 72.7369 9.45256 12.1953 58.4152 15.5839 21.2412 6.04392 41.218 5.00683 -32.3657 -37.8734 25.095 100.438 8.20022 1.13436 3.39489 -1.3536e-009 1.56028e-007 -4.8854e-009 
7.42134 95.7017 -36.2684 45.7712 40.1922 164.454 -41.1646 -32.2276 -19.5775 91.3647 33.2537 -68.5104 -19.3939 18.757 3.84643 0.0462048 0.000533403 0.662642 21.9708 52.7337 -15.5461 -0.0113793 0.0104805 -0.00612377 29.1424 24.672 -23.9004 -1.98785e-015 0 -1.59028e-015 -78.4404 -4.62706 -53.3054 -44.3583 30.0702 -70.8951 13.7326 18.5693 -13.0715 41.5998 2.06636 -7.81642 73.9706 -48.7544 73.3913 10.3701 13.7543 59.7398 15.5268 21.1358 5.75462 40.1404 4.04595 -32.8978 -39.1257 24.8652 101.933 7.20664 0.323473 2.70567 -1.35361e-009 1.56028e-007 -4.88541e-009 
6.92828 95.5897 -36.1296 43.0897 38.4332 167.435 -36.1884 -33.7979 -25.17 89.4596 45.334 -69.5467 -16.4782 17.5504 1.88054 0.0462048 0.000533403 0.662642 19.9712 48.9186 -14.5179 -0.0080057 0.0178607 -0.00808099 30.8651 26.6914 -25.3842 -3.18055e-015 0 -0 -78.1011 -3.78639 -53.4327 -43.9254 29.7911 -70.7406 13.6425 18.7115 -12.9049 41.1423 2.9695 -8.85478 74.7622 -48.7431 74.2225 11.3078 15.4621 61.0127 15.3313 20.905 5.37368 38.5999 1.45162 -32.3099 -40.0038 24.4798 102.893 6.30247 -0.466328 2.04351 -1.3536e-009 1.56028e-007 -4.88541e-009 
6.46878 95.3466 -36.1237 40.7228 36.7445 170.002 -30.0886 -35.2313 -30.859 87.3629 58.1156 -71.6777 -14.618 16.0488 0.681618 0.0462048 0.000533403 0.662642 18.2711 44.9916 -13.6616 -0.0049547 0.0248809 -0.0100963 32.3638 28.539 -27.0094 1.78906e-015 -3.18055e-015 1.59028e-015 -77.7532 -3.23392 -53.2735 -43.8244 29.8006 -70.3396 13.6755 18.8725 -12.7274 40.7896 4.14359 -10.1575 75.6499 -48.6088 75.2286 12.2394 17.2954 62.226 14.9823 20.5844 5.03582 37.131 -0.758348 -31.6989 -40.6045 24.0238 103.405 5.39414 -1.19478 1.43088 -1.3536e-009 1.56028e-007 -4.8854e-009 
6.03017 95.0532 -36.1808 38.5314 34.9823 172.281 -23.4656 -36.6413 -36.4523 84.0463 70.7036 -73.4715 -13.1518 14.2724 -0.0440312 0.0462048 0.000533403 0.662642 17.1564 41.2613 -13.3325 0.0117642 0.0378311 -0.0119264 33.434 30.1203 -28.4086 -2.78299e-015 -1.59028e-015 1.59028e-015 -77.6442 -3.04458 -53.2674 -43.8977 29.9432 -69.9009 13.7622 19.0266 -12.5484 40.2117 5.25374 -11.3452 76.5822 -48.3202 76.2731 13.1613 19.1778 63.4857 14.5881 20.2319 4.67851 35.6183 -2.83071 -31.0954 -40.9349 23.5098 103.708 4.5171 -1.79646 0.882099 -1.35361e-009 1.56028e-007 -4.8854e-009 
5.60663 94.8398 -36.2835 36.5547 33.1457 174.245 -16.7451 -38.1255 -41.6506 75.4512 82.5794 -70.7146 -11.7216 12.5434 -0.455495 0.0462048 0.000533403 0.662642 16.5361 37.8564 -13.3913 0.0133154 0.0367612 -0.0133275 34.0763 31.3784 -29.4742 -1.68967e-015 7.95139e-016 1.59028e-015 -77.6453 -3.35215 -53.5255 -43.8365 31.4032 -68.7323 15.1726 18.2196 -13.0688 39.4477 6.23479 -12.2572 77.5839 -47.9156 77.3692 14.0496 21.1038 64.7395 14.1251 19.7971 4.32804 34.1214 -4.78552 -30.511 -41.0556 22.9461 103.819 3.6521 -2.2807 0.398975 -1.35361e-009 1.56028e-007 -4.8854e-009 
5.18234 94.8196 -36.417 34.8596 30.7031 175.568 -9.88765 -40.2225 -46.0884 -74.7426 85.87 73.0107 -9.99428 10.8762 -0.626147 0.0462048 0.000533403 0.662642 16.095 34.3396 -13.1933 0.0125557 0.0375314 -0.0137668 34.2745 32.3577 -30.1608 -1.59028e-015 -7.95139e-016 -0 -77.7076 -4.22645 -53.882 -43.788 34.0595 -66.9384 17.6795 16.5392 -14.2122 38.512 7.09366 -12.8622 78.6468 -47.3803 78.4952 14.882 23.0747 65.9886 13.5821 19.2809 4.01366 32.8232 -6.90215 -29.4093 -41.0395 22.3659 103.149 2.77076 -2.68672 -0.0138164 -1.35361e-009 1.56028e-007 -4.8854e-009 
